<?xml version="1.0" encoding="UTF-8" standalone="no"?>
<!-- Created with Inkscape (http://www.inkscape.org/) -->

<svg
   width="74.875145mm"
   height="56.26392mm"
   viewBox="-16 0 74.875145 56.26392"
   version="1.1"
   id="svg1"
   xml:space="preserve"
   xmlns="http://www.w3.org/2000/svg"
   xmlns:svg="http://www.w3.org/2000/svg"><defs
     id="defs1"><linearGradient
       id="swatch122"><stop
         style="stop-color:#000000;stop-opacity:1;"
         offset="0"
         id="stop122" /></linearGradient><linearGradient
       id="swatch121"><stop
         style="stop-color:#000000;stop-opacity:1;"
         offset="0"
         id="stop121" /></linearGradient></defs><g
     id="g135"
     transform="translate(-130.70416,-68.992285)"><rect
       style="opacity:1;fill:#ffffff;fill-opacity:1;stroke:#000000;stroke-width:0;stroke-linejoin:miter;stroke-dasharray:none;stroke-dashoffset:0;stroke-opacity:1"
       id="rect137"
       width="74.874657"
       height="56.26392"
       x="114.70466"
       y="68.992287" /><path
       style="display:inline;fill:#4753c5;fill-opacity:1;stroke-width:0.782523"
       d="m 152.76629,84.022986 0.0246,0.226254 c 0,0 -0.14673,-0.128359 -0.44628,-0.08873 0.0306,0.08547 -0.0642,0.07335 0.44323,0.360675 0.50741,0.287476 5.92394,3.185125 5.92394,3.185125 l 1.28383,0.256717 2.21308,1.161556 -0.37904,0.01183 0.30567,0.513523 6.00342,3.643607 8.00865,4.903 5.06195,2.995607 1.74844,0.34236 1.83404,-0.55022 0.0245,-0.61133 0.40349,-0.24459 v -0.770301 l 0.3179,-0.18337 -0.62357,-10.967554 -0.19565,-0.354583 -1.06373,-0.305665 0.62356,-0.195495 0.29345,-0.02366 0.15897,-0.354583 0.13448,-0.45239 -0.29345,-3.020062 -0.17118,-0.256718 -5.75888,-1.320525 -0.29345,-0.220043 -0.64803,-0.122147 v -0.635819 l -0.45239,-0.220043 0.0246,-0.08547 0.2812,0.02366 v -0.146696 l -2.23752,-0.868105 -0.0611,-1.234904 -4.97635,-1.259392 -0.0245,-0.892565 3.80257,-0.537982 0.0367,-1.736211 -0.6358,-0.03667 0.0611,-0.672492 c 0,0 0.39126,-0.855891 -0.40349,-1.137097 -0.83143,0.03667 -0.78252,0.550197 -0.79475,0.929239 -0.0121,0.379042 -0.0489,0.758084 -0.0489,0.758084 l -1.10043,-0.122148 -0.3668,-0.183369 -0.0246,-0.305665 0.28123,0.01183 v -0.207917 l -0.88033,-0.01183 -0.0121,-0.207917 -0.29345,-0.06122 0.34236,-0.122147 -0.0367,-0.513553 -0.40349,0.02366 0.28124,-0.232465 1.01483,-0.03667 v -0.305665 l -0.25678,0.03667 v -0.110022 l -3.39908,-0.03667 -0.0489,0.171243 -0.24453,-0.03667 -0.0246,0.207917 0.83143,0.06122 0.3179,0.232169 h -0.30568 l 0.0121,0.562441 0.36681,0.02366 -0.13451,0.110021 -0.25678,0.01183 -0.0733,0.13457 -0.78253,0.06122 -0.0245,0.232169 0.17118,0.01183 -0.0121,0.269139 -0.35457,0.146695 -1.02706,0.08547 -0.0611,-0.74584 c 0,0 0.11005,-0.660248 -0.6358,-0.941483 -0.68471,0.232465 -0.78252,0.330124 -0.66025,1.112667 -0.0246,0.293391 0.0978,0.709166 0.0978,0.709166 l -0.6847,0.02366 0.0367,1.76067 3.58248,0.586901 -0.0245,0.806972 -3.33795,0.770299 -0.0978,0.207917 -0.0121,0.354583 c 0,0 -0.23232,0.146696 -0.20786,0.61136 -0.29345,0.0488 -0.67249,0.134569 -0.67249,0.134569 v 0.232169 l 0.0854,0.269139 c 0,0 -1.00261,0.146695 -1.38165,0.574656 -0.23231,0.03667 -1.10042,0.256717 -1.10042,0.256717 l -0.14673,0.513523 0.13451,0.489093 -8.32654,2.005202 -0.23232,0.220043 z"
       id="path5" /><path
       style="display:inline;fill:#4753c5;fill-opacity:1;stroke-width:0.53364"
       d="m 120.48103,94.285869 0.009,0.385667 h -0.22388 l 0.0828,0.25169 1.0531,0.310219 0.13279,0.595299 2.80274,0.511453 0.0497,0.201115 2.01499,0.385667 6.61508,2.287621 c 0,0 0.12895,0.87743 2.49782,1.18572 0.2579,0.0118 1.13751,0.0592 1.68865,-0.37945 0.34009,-0.0713 0.79745,-0.34385 0.79745,-0.34385 l 1.14922,-0.20171 1.68866,-0.39129 0.16414,-0.29643 2.83791,-0.42687 3.21316,-0.0592 0.16414,-0.55729 3.30698,-0.54547 0.0586,-0.154088 -0.38111,-0.0089 -0.006,-0.400189 0.29014,-0.03549 -0.27565,-0.302352 -4.48059,-1.542254 -0.058,-0.184552 -0.50581,-0.184257 -0.009,-0.394067 -1.25212,-0.56176 -0.19904,-1.031275 -0.78775,-0.310219 -0.18248,-0.830042 -1.62527,-0.536622 -0.24045,-1.299556 -3.98852,-1.358263 -0.0331,-0.410866 3.24224,-0.293391 0.38144,-0.427605 0.0497,-1.115152 -0.53898,-0.159117 0.0331,-0.687516 c 0,0 0.1742,-0.5869 -0.43949,-0.922259 -0.22389,0.01479 -0.63848,0.108838 -0.67995,0.838412 0,0.184552 0.0178,0.511452 0.0178,0.511452 l -1.11944,-0.310219 -0.003,-0.137823 -0.28452,-0.08281 -0.0148,-0.228324 h 0.19638 l 0.0387,-0.213241 h 0.14936 l -0.009,-0.427606 -0.88727,-0.05028 0.0497,-0.31022 -0.41459,-0.0089 v -0.07542 l -0.59704,-0.05028 -0.009,0.08814 -0.37523,-0.07128 -0.0237,0.316519 -0.8603,-0.09228 -0.006,0.60157 0.29013,0.002 -0.0683,0.150836 0.003,0.178342 -0.3172,0.003 -0.0177,0.148766 -1.16301,0.113275 0.003,-0.57643 c 0,0 0.24045,-0.637209 -0.47265,-0.855181 -0.0828,0 -0.63848,0.07956 -0.55555,0.85938 -0.0118,0.09228 -0.0497,0.649778 -0.0497,0.649778 l -0.5929,0.113275 0.003,1.226889 0.17893,0.296437 3.11935,0.865592 -0.003,0.566167 -3.52279,0.570515 -0.53899,1.333154 -1.49259,0.234831 -0.14108,0.687517 -0.96189,0.226254 -0.77947,1.299585 -2.83589,0.88875 -4.32849,0.712656 -0.20112,0.194904 z"
       id="path1" /><path
       style="opacity:1;fill:#4e58c6;fill-opacity:1;stroke:#000000;stroke-width:0;stroke-linejoin:miter;stroke-dasharray:none;stroke-dashoffset:0;stroke-opacity:1"
       d="m 114.70417,105.47644 v 19.76773 h 44.9957 c 0,0 -13.1679,-13.43659 -44.9957,-19.76773 z"
       id="path135" /></g></svg>
