<?xml version="1.0" encoding="UTF-8" standalone="no"?>
<!-- Created with Inkscape (http://www.inkscape.org/) -->

<svg
   width="66.413528mm"
   height="28.976711mm"
   viewBox="-16 0 66.413528 28.976711"
   version="1.1"
   id="svg1"
   xml:space="preserve"
   xmlns="http://www.w3.org/2000/svg"
   xmlns:svg="http://www.w3.org/2000/svg"><defs
     id="defs1"><linearGradient
       id="swatch122"><stop
         style="stop-color:#000000;stop-opacity:1;"
         offset="0"
         id="stop122" /></linearGradient><linearGradient
       id="swatch121"><stop
         style="stop-color:#000000;stop-opacity:1;"
         offset="0"
         id="stop121" /></linearGradient></defs><g
     id="g132"
     transform="translate(-64.290651,-68.918794)"><rect
       style="opacity:1;fill:#ffffff;fill-opacity:1;stroke:#000000;stroke-width:0;stroke-linejoin:miter;stroke-dasharray:none;stroke-dashoffset:0;stroke-opacity:1"
       id="rect136"
       width="66.413528"
       height="28.902302"
       x="48.290649"
       y="68.993202" /><path
       style="opacity:1;fill:#4e58c6;fill-opacity:1;stroke:#000000;stroke-width:0;stroke-linejoin:miter;stroke-dasharray:none;stroke-dashoffset:0;stroke-opacity:1"
       d="m 48.313,68.97085 v 14.663706 c 0,0 17.795539,-0.169625 21.677629,-14.715768 -5.191712,0 -21.677629,0.05206 -21.677629,0.05206 z"
       id="path132" /><path
       style="opacity:1;fill:#4e58c6;fill-opacity:1;stroke:#000000;stroke-width:0;stroke-linejoin:miter;stroke-dasharray:none;stroke-dashoffset:0;stroke-opacity:1"
       d="m 13.769627,69.334974 2.008269,-0.506981 0.31034,0.989611 c 0,0 0.06411,0.01392 0.06942,-0.06012 0.0053,-0.07403 -0.06831,-0.311846 -0.06831,-0.311846 l -0.236263,-0.628519 2.752023,-0.682158 0.44001,0.833976 0.0587,-0.03713 -0.389056,-0.816209 6.145291,-1.541063 0.109358,0.03416 0.191855,0.03021 0.03741,-0.06308 0.772661,-0.181328 0.0276,-0.06379 0.783415,-0.19371 0.124857,0.224885 0.05586,-7.03e-4 -0.08321,-0.2013 0.109075,-0.02938 0.116891,0.315334 0.0704,-0.0089 -0.131768,-0.302448 0.269374,-0.05973 0.04961,-0.108056 0.141461,-0.02705 0.08955,0.04828 0.970417,-0.237307 0.03241,-0.06278 0.7139,-0.191562 1.737428,-0.381755 0.0026,0.05609 0.03364,0.0353 0.164304,-0.04411 0.163394,-0.123105 0.07969,-0.01072 -0.0781,0.125935 -0.0027,0.174101 -0.411331,0.782748 -0.120598,0.03081 -0.07569,-0.09093 -0.35013,0.159033 -0.01292,0.08786 0.287703,-0.06814 -0.0052,0.118015 -0.402477,0.155277 -0.0085,0.07175 0.06919,-0.0017 0.214787,-0.06023 -0.02528,0.12315 -0.3555,0.142205 c 0,0 -0.03134,0.07011 0.01049,0.08296 0.04183,0.01283 0.265271,-0.07633 0.265271,-0.07633 l 0.04388,0.167575 c 0,0 0.09876,0.273457 0.123763,0.291694 0.025,0.01824 -0.152171,0.104179 -0.152171,0.104179 0,0 -0.02598,0.08692 0.0168,0.0867 0.04277,-2.39e-4 0.207775,-0.05416 0.207775,-0.05416 l 0.07592,0.08765 0.208479,-0.06396 1.026755,-0.376848 0.84483,-0.203905 0.004,-0.05553 -0.984962,0.245565 1.05246,-0.473256 0.121337,-0.135463 1.471672,-1.908137 -0.02211,-0.08065 0.0605,-0.03286 0.0528,-0.249674 -0.05452,-0.05042 0.368993,-0.475794 0.114696,-0.04293 0.203844,-0.280689 -0.03817,-0.01902 0.0911,-0.135308 0.0061,-0.05305 0.192368,-0.05595 0.157979,0.002 0.273027,-0.110626 0.05785,-0.0284 c 0,0 0.377253,0.02477 0.555974,-0.229842 0.03406,-0.05337 0.08757,-0.07463 0.08757,-0.07463 l 0.144174,0.05309 0.199095,0.04387 0.737768,-0.313728 0.6265,-0.229634 0.05497,-0.147327 0.108825,-0.118799 0.367186,-0.144655 0.290982,-0.09093 0.07187,-0.01622 0.165992,-0.205131 c 0,0 0.01685,-0.07444 0.102603,-0.0321 0.08599,0.03905 0.228636,0.113416 0.228636,0.113416 0,0 0.08424,0.01755 0.16406,-0.01781 0.07982,-0.03538 0.472621,-0.262053 0.472621,-0.262053 0,0 0.137639,0.02961 0.221581,-0.109062 l 0.483143,-0.22512 c 0,0 0.02803,0.04476 0.06754,-0.02475 -0.0181,-0.0457 -0.04566,-0.07398 -0.06834,-0.03286 -0.06077,0.02196 -0.487783,0.175462 -0.487783,0.175462 0,0 -0.06823,-0.03449 -0.01072,-0.102712 0.0603,-0.0154 1.032828,-0.369836 1.032828,-0.369836 l 2.510813,-0.987534 0.0835,-0.645102 0.719904,-0.245983 0.02877,-0.077 0.0305,-0.03028 0.209372,0.06106 -0.0043,0.106566 -0.04323,0.0067 0.07634,0.242252 1.01364,1.478584 1.192269,1.888995 0.631244,0.0174 0.222089,0.01594 1.330756,-0.527694 0.541684,1.006212 0.08315,0.396624 0.475838,0.238776 0.189059,-0.04225 2.146538,-0.878416 -0.09639,-0.341766 0.122954,-0.02838 0.131587,-0.148679 -0.05468,-0.534101 -0.153993,-0.05756 -0.104853,-0.742332 c 0,0 -0.09573,-0.351019 -0.438116,-0.375589 -0.22014,0.08652 -0.432353,0.192207 -0.432353,0.192207 l -0.166568,-0.01195 -0.07528,-0.247237 c 0,0 0.112679,0.02345 0.129582,-0.212103 0.0169,-0.235562 -0.113121,-0.669112 -0.113121,-0.669112 0,0 0.100526,-0.117751 0.100321,-0.206555 -2.44e-4,-0.08881 0.0073,-0.742687 -0.384861,-0.823442 0.112676,-0.103723 0.181882,-0.197413 0.181882,-0.197413 l 0.13766,-0.03945 0.02783,-0.06707 1.172381,-0.481496 c 0,0 0.05565,-0.08808 0.08761,0.06219 0.07874,0.0484 0.532708,0.367079 0.532708,0.367079 l 0.265478,0.01243 0.205168,0.0046 0.37305,0.245353 0.588252,0.09803 0.606869,-0.22619 1.489729,-0.539542 0.0377,-0.07171 0.84618,-0.320633 c 0,0 0.05917,-0.04691 0.0027,-0.134673 -0.04825,-0.0082 -0.08724,-0.04812 -0.03715,-0.098 0.01236,-0.07585 0.02212,-0.242574 0.02212,-0.242574 l -0.0806,-0.62665 0.126639,-0.176939 c 0,0 0.02573,-0.358581 -0.308311,-0.629038 -0.07105,-0.01442 -0.265707,-0.02378 -0.265707,-0.02378 0,0 -0.05053,-0.138494 -0.161046,-0.21851 -0.09864,-0.05126 -0.198933,-0.07939 -0.35576,-0.06506 -0.02012,-0.10841 -0.04424,-0.161298 -0.129808,-0.232548 -0.09037,-0.06927 -0.292289,-0.107016 -0.356081,-0.09299 -0.02673,-0.113534 -0.08057,-0.205761 -0.171782,-0.23091 -0.08724,-0.04812 -0.268679,-0.04718 -0.268679,-0.04718 0,0 -0.116935,-0.185117 -0.172114,-0.226282 -0.05519,-0.04117 -0.236114,-0.07972 -0.320393,-0.07183 -0.02261,-0.07371 -0.115441,-0.205938 -0.115441,-0.205938 l 0.710517,-0.341996 -0.0014,-0.07684 0.120641,-0.02855 1.449846,-0.85865 0.362108,-0.153065 c 0,0 0.233998,-0.02041 0.246781,-0.198548 0.05703,-0.04939 0.125445,-0.06308 0.05806,-0.160932 0.04827,-0.057 0.121174,-0.13315 -0.02984,-0.23235 0.0726,-0.136636 0.281903,-0.461116 0.281903,-0.461116 l 0.100647,-0.04161 0.08551,-0.219422 0.177017,-0.101239 0.03757,-0.0054 -0.0022,0.08123 0.03462,0.0037 0.05035,-0.102189 0.03307,-0.007 0.01592,0.06974 0.02742,-0.0097 0.01638,-0.0337 0.02279,-0.01 0.01831,-0.07659 0.02479,-0.0051 0.0097,0.06 0.06395,-1.23e-4 0.003,-0.09164 0.08818,-0.046 0.03749,0.06083 0.04031,0.0215 0.03104,-0.157059 -0.03502,-0.01414 0.01,-0.138806 0.08222,0.0047 0.172694,-0.284088 -0.01096,-0.05776 1.143504,-0.445794 0.12476,0.01126 0.287916,-0.156066 -0.09469,-0.0091 -0.149242,0.07068 -0.09056,-0.0018 -1.251244,0.456664 -0.07697,-0.126441 1.070125,-0.427806 0.227389,-0.02554 0.190077,-0.12123 -0.07237,-0.02845 -0.148245,0.0568 -0.153196,0.02854 -1.154075,0.431082 -0.06772,-0.09323 0.837091,-0.323612 0.09716,0.007 0.16214,-0.08835 0.0093,-0.06445 -0.270052,0.10154 -0.115515,0.02194 -0.754782,0.278361 -0.394549,-0.691034 -0.176509,0.06174 -0.03135,-0.08131 -0.48504,0.11634 -0.121451,-0.025 -1.164435,0.283844 -0.05618,-0.02729 -0.316971,0.07491 -0.03456,0.0603 -0.505698,0.112533 -0.03652,-0.0095 -1.22806,0.295555 -0.08824,-0.03423 -0.306555,0.05939 -0.062,0.08624 -1.254659,0.277369 -0.04808,-0.04298 -0.18575,0.02853 c 0,0 0.06554,-0.297591 -0.204539,-0.616941 -0.007,-0.03305 -0.0094,-0.06346 -0.0094,-0.06346 l 0.07156,-0.02509 c 0,0 0.03549,-0.560185 -0.220535,-0.718077 -0.01354,-0.03818 -0.01485,-0.05223 -0.01485,-0.05223 l 0.08429,-0.04046 c 0,0 0.07647,-0.385169 -0.150977,-0.682857 -0.03073,-0.02546 -0.05269,-0.07587 -0.05269,-0.07587 l 0.04612,-0.02692 c 0,0 0.154288,-0.335404 -0.163353,-0.737228 -0.02064,-0.03636 -0.0266,-0.05074 -0.0266,-0.05074 l 0.0767,-0.06426 c 0,0 0.0831,-0.412599 -0.227642,-0.716264 -0.03008,-0.0022 -0.03205,-0.007 -0.03205,-0.007 l 0.05091,-0.0289 0.05538,-0.05881 c 0,0 0.111528,-0.452415 -0.206987,-0.712454 0.01588,-0.02678 0.04382,-0.0922 0.04382,-0.0922 l 0.04347,-0.02246 c 0,0 0.06083,-0.523488 -0.278858,-0.747842 -0.08594,-0.0015 -0.177646,0.01283 -0.177646,0.01283 l -0.310797,-0.108343 -0.0188,-0.09437 -0.416705,-0.155474 -0.01665,-0.124436 -0.131832,-0.107131 -0.04579,0.05485 -0.529684,0.187547 -0.03372,0.0162 -0.0027,0.06957 -0.175644,-0.04748 -0.162277,-0.0069 -0.58951,0.211158 -0.07303,-0.01921 -0.243773,0.0918 -0.04018,0.07385 -0.366229,0.11324 -0.07222,0.03435 -0.01921,0.105587 -0.449035,0.165429 -0.02299,0.223907 -0.03439,0.05799 0.05545,0.231863 c 0,0 -0.150224,0.538 -0.114099,0.714993 -0.04661,0.03386 -0.22791,0.09759 -0.22791,0.09759 l -0.01066,0.08295 0.09087,0.02978 -0.119396,0.270472 0.0016,0.139637 -0.0078,0.04362 0.03981,0.061 0.0069,0.0656 -0.03288,0.0046 2.06e-4,0.0628 0.04594,0.008 0.0036,0.07932 c 0,0 0.07407,0.361093 0.0995,0.428027 -0.02975,0.02577 -0.431856,0.185268 -0.431856,0.185268 l -0.147394,-0.0199 -1.121696,0.465963 -0.182835,0.214762 -0.434481,0.12462 -0.611531,0.84207 0.213899,1.296611 0.131523,0.04664 0.0015,0.04429 -0.811634,0.292884 c 0,0 0.01117,0.200781 -0.03592,0.209029 -0.05156,0.0056 -0.121295,0.0053 -0.121295,0.0053 l 0.0092,0.06577 0.04148,0.0053 0.0602,0.360096 -0.05652,0.0099 0.06419,0.27202 -0.940365,0.304574 -0.07853,0.122258 -0.375285,0.0126 -2.33459,0.874222 -0.09253,-0.0066 -0.235017,0.0994 -0.06923,-0.03985 -0.294795,-0.525754 -0.06941,0.02757 0.278756,0.554831 -0.309875,0.105656 -0.315451,-0.529561 -0.04711,0.0408 0.253808,0.546064 -1.545428,0.570424 -0.08362,-0.0013 -0.297097,-0.558474 -0.0334,0.07667 0.252986,0.525077 -0.315498,0.119206 -0.08292,-0.108266 0.13255,-0.0649 -0.0096,-0.06115 -0.136181,0.05069 -0.198672,-0.374684 -0.06494,-0.0024 -0.0071,0.06692 0.172404,0.35187 -0.329702,0.09028 c 0,0 -0.45808,0.03224 -0.580557,0.118789 -0.07437,-6.25e-4 -0.292686,0.09294 -0.292686,0.09294 l -0.04076,0.341226 -0.274024,0.124506 -0.320563,-0.555506 -0.06281,0.0327 0.236805,0.491363 -0.273526,0.117565 -0.0509,-0.0037 -0.261598,-0.469887 -0.06758,0.0021 0.250176,0.531852 -0.15055,0.02408 -0.323114,0.160516 -0.07469,0.004 c 0,0 -0.0059,-0.07949 -0.151359,-0.02946 -0.0357,0.0114 -0.06147,0.01419 -0.06147,0.01419 0,0 -0.03981,-0.061 -0.143769,-0.0056 -0.11618,0.03119 -0.802223,0.323787 -0.802223,0.323787 l -0.23055,-0.416502 -0.05192,0.07534 0.192229,0.367246 -0.335833,0.143325 -0.238806,-0.431048 -0.05736,0.05402 0.144794,0.286118 c 0,0 -0.619097,0.103559 -0.797017,0.33743 -0.06263,0.0021 -0.150293,0.078 -0.150293,0.078 l -0.591562,0.22392 0.01656,0.08998 0.594128,-0.21387 0.07128,0.01494 0.002,0.108665 -0.578709,0.228132 -0.02738,0.244674 0.05254,0.138599 -0.685531,0.296103 -2.492974,1.103628 -0.115917,0.01141 -0.355464,0.131828 -0.760924,0.363956 -3.076708,1.332542 -0.422511,-0.593051 -0.01343,0.05717 0.349809,0.569232 -0.115692,0.05681 -0.236681,-0.363459 -0.02118,0.06824 0.189272,0.311226 -6.668887,2.849 -0.611624,0.616506 -0.104714,-0.160987 0.04727,-0.01056 -0.203973,-0.333208 -0.03903,0.09022 0.122713,0.201809 0.01866,0.06413 0.112972,0.17553 -0.830976,0.821674 -0.04975,0.0127 -1.172837,1.211052 -0.714045,-1.019173 0.06543,0.0047 -0.255555,-0.334037 -0.03228,0.08318 0.179867,0.243104 0.514335,0.806423 0.0082,0.06964 0.173103,0.199868 -0.462163,0.437095 0.01141,0.115918 -0.173665,0.0829 -0.880619,0.860883 -0.08465,0.125466 -0.0066,0.183686 0.627752,1.288111 0.0032,0.09231 0.05211,0.007 z"
       id="path130"
       transform="translate(45.561207,26.069759)" /></g></svg>
