<?xml version="1.0" encoding="UTF-8" standalone="no"?>
<!-- Created with Inkscape (http://www.inkscape.org/) -->

<svg
   width="64.335815mm"
   height="28.890476mm"
   viewBox="-16 0 64.335815 28.890476"
   version="1.1"
   id="svg1"
   xml:space="preserve"
   xmlns="http://www.w3.org/2000/svg"
   xmlns:svg="http://www.w3.org/2000/svg"><defs
     id="defs1"><linearGradient
       id="swatch122"><stop
         style="stop-color:#000000;stop-opacity:1;"
         offset="0"
         id="stop122" /></linearGradient><linearGradient
       id="swatch121"><stop
         style="stop-color:#000000;stop-opacity:1;"
         offset="0"
         id="stop121" /></linearGradient></defs><g
     id="g123"
     transform="translate(11.077564,-68.988954)"><rect
       style="opacity:1;fill:#ffffff;fill-opacity:1;stroke:#000000;stroke-width:0;stroke-linejoin:miter;stroke-dasharray:none;stroke-dashoffset:0;stroke-opacity:1"
       id="rect135"
       width="64.335815"
       height="28.889318"
       x="-16"
       y="68.990105"
       transform="translate(-11.077564)" /><path
       style="opacity:1;fill:#4e58c6;fill-opacity:1;stroke:#000000;stroke-width:0;stroke-linejoin:miter;stroke-dasharray:none;stroke-dashoffset:0;stroke-opacity:1"
       d="m 5.2218901,94.619268 -1.359354,0.734787 -0.085721,-0.04899 -0.048986,0.02041 -0.020409,0.118384 0.1102204,0.167363 -0.093889,0.08982 -0.4449536,-0.163284 -0.2612569,-0.07348 -0.2735036,-0.05719 -2.29824742,-1.00829 0.012379,-0.08496 -0.047626,-0.0072 -7.75172528,-3.323817 -0.088038,-0.0058 c 0,0 -0.3622576,0.106801 -0.4979227,-0.170304 -0.00867,-0.02741 -0.08804,-0.06928 -0.070721,-0.411328 -0.011546,0.02598 -0.047627,0.08082 -0.047627,0.08082 l -0.796677,-0.334836 -0.1645302,0.132781 -0.6884343,-0.297311 -0.048102,-0.219451 -0.2418665,0.02551 0.046059,0.140538 -0.178964,0.161645 -0.519572,-0.254014 -0.02309,-0.150098 -0.323289,-0.161645 -0.346381,-0.0058 -0.127007,-0.07505 c 0,0 -0.357927,0.230921 -0.588849,0.115461 -0.202055,-0.09237 -1.633765,-0.785131 -1.633765,-0.785131 l -0.17319,-0.577302 -0.213602,-0.09814 -0.08082,0.08082 -0.259786,-0.03464 c 0,0 -3.983385,-0.99296 -4.849338,-2.274571 0.09814,-0.06928 0.300196,-0.161644 0.300196,-0.161644 l -0.05772,-0.173191 -0.490707,0.103919 -0.978412,-2.265249 -0.371476,0.02449 0.09389,-0.669471 -0.151041,-0.310243 -0.01634,-0.200024 -0.314325,0.155122 c 0,0 0.183696,-1.281794 0.591912,-1.832884 0.05714,-0.09797 0.644977,-1.130753 1.24097,-1.661432 0.122463,-0.118382 0.416377,-0.314325 0.416377,-0.314325 l -0.187777,-0.240847 0.276595,-0.195841 -0.225148,-0.115461 0.93523,-0.646578 0.282878,-0.06928 0.652352,-0.421431 c 0,0 1.512531,-0.831315 3.071247,-1.350887 0.444528,-0.138533 3.117437,-0.889026 3.56196,-0.929436 0.155872,-0.02309 3.0597016,-0.66967 4.5145031,-0.594622 0.3290623,0.01731 1.6626304,0.02886 1.6626304,0.02886 l 0.4964798,0.196283 c 0,0 2.124472,0.04042 3.40030958,0.334835 0.1327799,-0.04042 1.1950159,-0.311743 1.1950159,-0.311743 l 1.10842022,0.548437 0.5080258,-0.0635 c 0,0 1.027598,0.444523 1.0391441,1.558716 0.1212333,-0.0058 3.2155734,-0.219375 3.2155734,-0.219375 l 2.4708524,1.143059 0.196658,0.05887 1.4083383,1.734912 c 0,0 0.118383,0.816428 -0.375556,1.310366 -0.110218,0.1143 -0.4204623,0.40005 -0.6327323,0.395969 -0.159204,0.01634 -2.065564,-0.04899 -2.261507,-0.110217 -0.102057,-0.05307 -0.273505,-0.195944 -0.273505,-0.195944 l -0.1673674,-0.09797 -0.4449525,-0.212271 -0.028577,0.0694 0.4531183,0.66947 -0.028577,0.534762 0.077564,0.02858 0.3306526,0.526596 -0.02449,0.346983 -0.06124,0.05715 0.01634,0.0898 0.126547,-0.0081 0.0694,0.122464 -0.01224,0.122464 0.35923,0.05307 c 0,0 0.208189,0.220436 0.06124,0.289833 0.03673,0.05307 1.771652,3.208564 1.771652,3.208564 l 0.9184803,1.677761 0.08572,-0.004 0.873579,1.571625 0.0081,0.17145 0.191862,0.395968 -0.08165,0.08572 c -0.06936,-0.0082 -0.240814,-0.114388 -0.240814,-0.114388 l -0.06532,0.05306 -0.04899,0.428625 -0.0081,0.134712 0.04899,0.04083 0.004,0.163284 0.138793,0.261258 c 0,0 0.06124,0.126547 -0.09389,0.122464 -0.09797,-0.04899 -0.297996,-0.17145 -0.297996,-0.17145 l -0.159204,0.09389 v 0.122465 l -1.1307523,0.665389 -0.01634,0.179614 c 0,0 -0.102057,0.126546 -0.159206,0.03266 0,-0.09797 -0.183695,-0.1143 -0.183695,-0.1143 L 8.2385507,91.010659 7.8752407,90.68817 7.6221487,90.61877 6.27504,89.541084 4.0053695,87.471437 l -0.012252,-0.175531 0.028577,-0.01634 c 0,0 0.085721,0 0.040818,-0.1143 -0.061238,-0.06124 -0.093889,-0.159204 -0.093889,-0.159204 l -0.7102946,-0.70621 -0.518432,0.220436 c 0,0 -0.089805,0.03265 -0.028567,0.118382 0.069396,0.05307 0.8980688,0.873578 0.8980688,0.873578 0,0 0.040829,0.08165 -0.020409,0.106136 -0.069395,0.03674 -2.62890062,1.334861 -2.62890062,1.334861 l 1.93901852,1.559378 1.0899323,1.016454 v 0.277585 l 0.4531173,0.346982 0.1510398,0.240847 0.7429492,0.595992 -0.1061342,0.216355 -0.012241,0.159203 0.1102172,0.03673 -0.00815,0.24901 -0.114299,0.08572 v 0.05306 l 0.1061353,0.130629 -0.020409,0.355146 -0.073479,0.03674 z"
       id="path124" /><path
       style="opacity:1;fill:#4e58c6;fill-opacity:1;stroke:#000000;stroke-width:0;stroke-linejoin:miter;stroke-dasharray:none;stroke-dashoffset:0;stroke-opacity:1"
       d="m 48.311729,83.628634 c 0,0 -18.662094,1.075759 -23.29254,-14.592917 l 23.315927,-0.04677 z"
       id="path131"
       transform="translate(-11.077564)" /></g></svg>
