<?xml version="1.0" encoding="UTF-8" standalone="no"?>
<!-- Created with Inkscape (http://www.inkscape.org/) -->

<svg
   width="66.479042mm"
   height="27.393539mm"
   viewBox="-16 0 66.479042 27.393539"
   version="1.1"
   id="svg1"
   xml:space="preserve"
   xmlns="http://www.w3.org/2000/svg"
   xmlns:svg="http://www.w3.org/2000/svg"><defs
     id="defs1"><linearGradient
       id="swatch122"><stop
         style="stop-color:#000000;stop-opacity:1;"
         offset="0"
         id="stop122" /></linearGradient><linearGradient
       id="swatch121"><stop
         style="stop-color:#000000;stop-opacity:1;"
         offset="0"
         id="stop121" /></linearGradient></defs><g
     id="g124"
     transform="translate(-18.73006,-71.826728)"><rect
       style="opacity:1;fill:#ffffff;fill-opacity:1;stroke:#000000;stroke-width:0;stroke-linejoin:miter;stroke-dasharray:none;stroke-dashoffset:0;stroke-opacity:1"
       id="rect138"
       width="66.410767"
       height="27.358374"
       x="48.293125"
       y="97.896477"
       transform="translate(-45.561207,-26.069759)" /><path
       style="opacity:1;fill:#4e58c6;fill-opacity:1;stroke:#000000;stroke-width:0;stroke-linejoin:miter;stroke-dasharray:none;stroke-dashoffset:0;stroke-opacity:1"
       d="m 48.291267,109.30071 v 15.91335 H 114.77031 V 105.5026 c 0,0 -35.128402,-7.154309 -66.479043,3.79811 z"
       id="path134"
       transform="translate(-45.561207,-26.069759)" /><g
       id="g69"
       transform="matrix(1.166337,0,0,1.4131154,-129.1476,-33.550439)"><path
         style="display:inline;opacity:1;fill:#ececec;fill-opacity:1;stroke-width:0.264583"
         d="m 132.0846,90.656152 -0.10713,3.299868 h 0.90124 l 0.11989,-3.253547 0.16123,-0.161232 0.004,-0.210838 -0.0682,-0.02479 0.35694,-0.315949 0.11693,-0.01754 0.0175,-0.426797 -0.0409,-0.0117 0.006,-0.0497 0.27187,0.0029 0.0205,-0.546651 -0.44726,0.038 -0.072,-0.0379 0.29996,-0.257355 -0.0526,-0.216321 0.55467,-0.693177 0.17983,-0.06201 1.30008,-1.51326 0.49988,-1.993665 0.0482,-0.223628 0.0424,-0.07308 0.13155,-1.58587 0.0102,-0.119853 -0.18709,-0.0058 c 0,0 -0.14763,-0.397563 -0.55396,-0.432641 -0.1257,0 -0.68989,-0.03508 -1.33008,0.251399 -0.076,0.02923 -1.73683,0.65903 -2.7745,1.485852 -0.062,0 -3.15432,-0.289388 -3.15432,-0.289388 l -0.19431,-0.02894 -0.11368,0.07545 -0.25529,-0.245981 0.0941,-0.07234 -0.0341,-0.03721 -0.11742,-0.13762 -0.0482,0.038 0.0351,0.03508 -0.0672,0.06285 -0.10605,-0.11303 -0.11886,0.100251 0.0465,0.05995 -0.0114,0.07648 -0.1726,-0.19327 -0.0971,0.08578 0.2067,0.250113 0.0589,-0.05064 0.0579,0.09199 0.11369,-0.08372 0.2036,0.224276 -0.0207,0.02997 0.0238,0.04341 -0.0951,0.06098 -0.65526,3.792017 c 0,0 -2.23036,2.286166 -1.9575,3.451987 0.0579,0.157096 0.26458,0.446484 0.62011,0.487825 0.0579,0.124024 0.22249,0.347261 0.22249,0.347261 l 0.51157,-0.01315 1.34616,-0.0497 0.48672,-0.03361 1.41008,-0.676609 0.80305,0.06615 1.12862,-0.720368 0.0486,-0.111622 0.0568,-0.05064 0.25734,0.263549 -0.006,0.02791 -0.0486,0.0041 -0.002,0.253216 z"
         id="path6" /><path
         style="display:inline;opacity:1;fill:#4e58c6;fill-opacity:1;stroke-width:0.264583"
         d="m 127.99496,83.406466 -0.24556,0.187089 -0.59231,3.584586 c 0,0 1.61253,-1.661081 2.54797,-2.356816 -0.0994,-0.08185 -1.7101,-1.414859 -1.7101,-1.414859 z"
         id="path7" /><path
         style="display:inline;opacity:1;fill:#4e58c6;fill-opacity:1;stroke-width:0.264583"
         d="m 128.06453,83.343749 0.10646,-0.08475 3.21203,0.315553 c 0,0 -1.35685,0.945351 -1.6049,1.189265 -0.0537,-0.03514 -1.71359,-1.420069 -1.71359,-1.420068 z"
         id="path8" /><path
         style="display:inline;opacity:1;fill:#4e58c6;fill-opacity:1;stroke-width:0.264583"
         d="m 127.82062,91.000129 -1.46348,0.463021 1.80454,-0.04961 0.004,-0.03927 z"
         id="path9" /><path
         style="display:inline;opacity:1;fill:#4e58c6;fill-opacity:1;stroke-width:0.264583"
         d="m 127.93431,90.969123 0.29559,0.351401 0.48162,-0.572577 -0.0558,-0.0186 z"
         id="path10" /><path
         style="display:inline;opacity:1;fill:#4e58c6;fill-opacity:1;stroke-width:0.264583"
         d="m 135.70644,83.850177 0.12609,0.07235 0.0186,-0.0186 0.0393,0.02687 0.0599,-0.06821 0.1695,-0.876433 z"
         id="path11" /><path
         style="display:inline;opacity:1;fill:#4e58c6;fill-opacity:1;stroke-width:0.264583"
         d="m 134.70384,86.477352 c 0,0 -0.10524,0.191474 -0.17393,0.20755 -0.003,0.02923 -0.20609,0.787821 -0.20609,0.787821 l 0.0292,0.02045 -0.0438,0.076 0.0204,0.01169 1.17223,-1.37101 -0.009,-0.03508 z"
         id="path12" /><path
         style="display:inline;opacity:1;fill:#4e58c6;fill-opacity:1;stroke-width:0.264583"
         d="m 133.98252,87.831331 -0.42995,0.541568 -0.10129,-0.367935 z"
         id="path13" /><path
         style="display:inline;opacity:1;fill:#4e58c6;fill-opacity:1;stroke-width:0.264583"
         d="m 133.17843,88.093845 0.12919,-0.04341 0.0992,0.324527 z"
         id="path14" /><path
         style="display:inline;opacity:1;fill:#4e58c6;fill-opacity:1;stroke-width:0.264583"
         d="m 133.04511,88.138287 -0.23978,0.08268 0.48162,0.238746 0.007,-0.01344 z"
         id="path15" /><path
         style="display:inline;opacity:1;fill:#4e58c6;fill-opacity:1;stroke-width:0.264583"
         d="m 132.89731,87.941919 -0.0413,-0.0011 -0.0424,0.169498 0.0186,0.0083 0.14056,-0.04754 0.009,-0.0217 z"
         id="path16" /><path
         style="display:inline;opacity:1;fill:#4e58c6;fill-opacity:1;stroke-width:0.264583"
         d="m 133.19394,87.670099 -0.21291,0.149863 0.13952,0.204639 0.16124,-0.05995 z"
         id="path17" /><path
         style="display:inline;opacity:1;fill:#4e58c6;fill-opacity:1;stroke-width:0.264583"
         d="m 133.33283,87.579421 0.095,0.337635 0.66358,-0.216321 0.0278,-0.04385 z"
         id="path18" /><path
         style="display:inline;opacity:1;fill:#4e58c6;fill-opacity:1;stroke-width:0.264583"
         d="m 132.54075,88.518626 -0.0362,0.03411 0.0631,0.09198 0.25218,0.14056 0.0196,-0.0062 z"
         id="path19" /><path
         style="display:inline;opacity:1;fill:#4e58c6;fill-opacity:1;stroke-width:0.264583"
         d="m 132.64513,88.409072 -0.0475,0.03307 0.2005,0.177769 -0.0134,-0.04651 z"
         id="path20" /><path
         style="display:inline;opacity:1;fill:#4e58c6;fill-opacity:1;stroke-width:0.264583"
         d="m 131.32841,88.974413 -0.34313,0.250113 0.1509,0.196371 0.26252,-0.287321 0.006,-0.07855 z"
         id="path23" /><path
         style="display:inline;opacity:1;fill:#4e58c6;fill-opacity:1;stroke-width:0.264583"
         d="m 130.71243,90.264257 0.75654,-0.239779 -0.35346,-0.446484 -0.32866,0.384471 z"
         id="path24" /><path
         style="display:inline;opacity:1;fill:#4e58c6;fill-opacity:1;stroke-width:0.264583"
         d="m 130.58221,90.721076 0.94878,-0.584978 -0.0145,-0.01654 -0.10543,0.02687 -0.0145,-0.01447 -0.7028,0.219107 z"
         id="path25" /><path
         style="display:inline;opacity:1;fill:#4e58c6;fill-opacity:1;stroke-width:0.264583"
         d="m 131.41225,89.226677 -0.23094,0.25871 0.32302,0.423873 z"
         id="path26" /><path
         style="display:inline;opacity:1;fill:#4e58c6;fill-opacity:1;stroke-width:0.264583"
         d="m 130.9606,89.381609 -0.10815,0.369795 0.21778,-0.235323 z"
         id="path27" /><path
         style="display:inline;opacity:1;fill:#4e58c6;fill-opacity:1;stroke-width:0.264583"
         d="m 132.70287,88.321929 0.40487,0.515956 0.22363,-0.203168 z"
         id="path28" /><path
         style="display:inline;opacity:1;fill:#4e58c6;fill-opacity:1;stroke-width:0.264583"
         d="m 133.4103,88.659564 0.0804,0.04239 -0.19586,0.181242 -0.0438,-0.03508 z"
         id="path29" /><path
         style="display:inline;opacity:1;fill:#4e58c6;fill-opacity:1;stroke-width:0.264583"
         d="m 130.61632,90.170205 c 0,0 -0.1354,0.165365 -0.13953,0.166399 -0.004,0.0011 0.10852,-0.02479 0.10852,-0.02479 z"
         id="path30" /><path
         style="display:inline;opacity:1;fill:#4e58c6;fill-opacity:1;stroke-width:0.264583"
         d="m 130.38481,90.431688 -0.0351,0.04341 0.11782,0.153998 0.0207,-0.0011 0.061,-0.225309 -0.0145,-0.01035 z"
         id="path31" /><path
         style="display:inline;opacity:1;fill:#4e58c6;fill-opacity:1;stroke-width:0.264583"
         d="m 130.24941,90.551578 -0.28525,0.115756 -0.004,0.03721 0.42788,0.04548 0.0155,-0.02066 z"
         id="path32" /><path
         style="display:inline;opacity:1;fill:#4e58c6;fill-opacity:1;stroke-width:0.264583"
         d="m 130.87729,89.302681 -0.31425,0.244094 -0.25286,0.831668 0.37418,-0.418026 z"
         id="path33" /><path
         style="display:inline;opacity:1;fill:#4e58c6;fill-opacity:1;stroke-width:0.264583"
         d="m 128.87689,90.696271 -0.55397,0.657326 1.23609,-0.57671 z"
         id="path34" /><path
         style="display:inline;opacity:1;fill:#4e58c6;fill-opacity:1;stroke-width:0.264583"
         d="m 125.81274,91.214494 0.14763,0.185627 1.7028,-0.629962 -0.0117,-0.04969 c 0,0 -0.87551,0.353714 -0.96613,0.365409 -0.0424,0.0088 -0.48526,0.143237 -0.8726,0.128621 z"
         id="path35" /><path
         style="display:inline;opacity:1;fill:#4e58c6;fill-opacity:1;stroke-width:0.264583"
         d="m 127.77411,90.778953 0.0568,0.08268 0.75448,-0.248047 0.0868,-0.144693 -0.64286,0.162264 z"
         id="path36" /><path
         style="display:inline;opacity:1;fill:#4e58c6;fill-opacity:1;stroke-width:0.264583"
         d="m 126.4605,91.287451 1.22783,-0.467157 0.0496,0.04754 -1.2299,0.440283 z"
         id="path37" /><path
         style="display:inline;opacity:1;fill:#4e58c6;fill-opacity:1;stroke-width:0.264583"
         d="m 129.87169,90.094886 -0.17978,0.076 0.36687,0.17101 z"
         id="path38" /><path
         style="display:inline;opacity:1;fill:#4e58c6;fill-opacity:1;stroke-width:0.264583"
         d="m 129.00348,90.57284 0.78928,0.103775 0.40634,-0.185626 -0.60512,-0.280633 -0.30694,0.134469 -0.2894,0.207552 z"
         id="path39" /><path
         style="display:inline;opacity:1;fill:#4e58c6;fill-opacity:1;stroke-width:0.264583"
         d="m 130.44465,89.641779 -0.20609,0.689891 -0.23971,-0.277709 0.006,-0.03654 z"
         id="path40" /><path
         style="display:inline;opacity:1;fill:#4e58c6;fill-opacity:1;stroke-width:0.264583"
         d="m 134.45098,86.734599 -1.02022,0.7542 0.73812,0.08477 0.0848,-0.100851 z"
         id="path41" /><path
         style="display:inline;opacity:1;fill:#4e58c6;fill-opacity:1;stroke-width:0.264583"
         d="m 134.48167,86.604514 -0.99098,0.252862 -0.5525,0.647501 0.20024,0.105238 1.34178,-0.979291 z"
         id="path42" /><path
         style="display:inline;opacity:1;fill:#4e58c6;fill-opacity:1;stroke-width:0.264583"
         d="m 135.16864,85.707073 -0.38149,0.616808 0.68112,-0.239708 z"
         id="path43" /><path
         style="display:inline;opacity:1;fill:#4e58c6;fill-opacity:1;stroke-width:0.264583"
         d="m 134.32966,86.204027 0.17978,0.194397 0.0716,0.01315 0.0994,-0.03508 0.43849,-0.723506 -0.13593,-0.185629 -0.23678,0.216323 z"
         id="path44" /><path
         style="display:inline;opacity:1;fill:#4e58c6;fill-opacity:1;stroke-width:0.264583"
         d="m 133.97303,86.632284 0.46479,-0.175395 -0.17247,-0.182705 z"
         id="path45" /><path
         style="display:inline;opacity:1;fill:#4e58c6;fill-opacity:1;stroke-width:0.264583"
         d="m 135.75812,84.60052 -0.57464,0.932243 -0.12816,-0.152963 0.46509,-0.634588 z"
         id="path46" /><path
         style="display:inline;opacity:1;fill:#4e58c6;fill-opacity:1;stroke-width:0.264583"
         d="m 135.57205,86.034477 0.39171,-1.619486 -0.0555,-0.01169 -0.0205,0.14324 -0.65189,1.043604 z"
         id="path47" /><path
         style="display:inline;opacity:1;fill:#4e58c6;fill-opacity:1;stroke-width:0.264583"
         d="m 135.97103,84.362808 -0.0496,-0.01344 0.0227,-0.109554 0.0641,-0.08682 0.006,0.04341 z"
         id="path48" /><path
         style="display:inline;opacity:1;fill:#4e58c6;fill-opacity:1;stroke-width:0.264583"
         d="m 135.67544,83.881184 0.13436,0.09095 -0.004,0.02479 0.0351,0.02066 -0.0992,0.173633 -0.0372,-0.02479 -0.0227,0.0186 -0.13022,-0.08888 z"
         id="path49" /><path
         style="display:inline;opacity:1;fill:#4e58c6;fill-opacity:1;stroke-width:0.264583"
         d="m 134.86102,85.109015 0.46095,-0.310058 0.3266,-0.388607 v -0.06408 l -0.13643,-0.192236 -0.7028,0.911572 z"
         id="path50" /><path
         style="display:inline;opacity:1;fill:#4e58c6;fill-opacity:1;stroke-width:0.264583"
         d="m 134.67291,85.243375 0.16123,-0.09922 -0.0434,-0.04651 z"
         id="path51" /><path
         style="display:inline;opacity:1;fill:#4e58c6;fill-opacity:1;stroke-width:0.264583"
         d="m 134.93853,85.15139 0.0506,0.04857 0.123,-0.150894 z"
         id="path52" /><path
         style="display:inline;opacity:1;fill:#4e58c6;fill-opacity:1;stroke-width:0.264583"
         d="m 134.68222,85.337427 0.12195,0.08165 0.14883,-0.173632 -0.0496,-0.05788 -0.22221,0.14056 z"
         id="path53" /><path
         style="display:inline;opacity:1;fill:#4e58c6;fill-opacity:1;stroke-width:0.264583"
         d="m 134.15822,85.995784 0.0837,0.08888 0.53124,-0.622184 -0.1292,-0.08992 -0.093,0.06615 c 0,0 -0.26975,0.406175 -0.3297,0.454752 -0.0114,0.01447 -0.063,0.10232 -0.063,0.10232 z"
         id="path54" /><path
         style="display:inline;opacity:1;fill:#4e58c6;fill-opacity:1;stroke-width:0.264583"
         d="m 131.11115,88.79842 0.003,0.0497 0.076,-0.04239 z"
         id="path55" /><path
         style="display:inline;opacity:1;fill:#4e58c6;fill-opacity:1;stroke-width:0.264583"
         d="m 130.9533,88.921197 -0.25579,0.175395 -0.009,0.0687 0.27479,-0.197319 z"
         id="path56" /><path
         style="display:inline;opacity:1;fill:#4e58c6;fill-opacity:1;stroke-width:0.264583"
         d="m 130.58058,89.176983 -0.22947,0.137393 0.038,0.07162 0.17978,-0.122777 z"
         id="path57" /><path
         style="display:inline;opacity:1;fill:#4e58c6;fill-opacity:1;stroke-width:0.264583"
         d="m 130.32187,89.34507 -0.36979,0.217782 0.0555,0.09939 0.35079,-0.254323 z"
         id="path58" /><path
         style="display:inline;opacity:1;fill:#4e58c6;fill-opacity:1;stroke-width:0.264583"
         d="m 129.7913,89.806946 0.17686,-0.11547 -0.0541,-0.08624 z"
         id="path59" /><path
         style="display:inline;opacity:1;fill:#4e58c6;fill-opacity:1;stroke-width:0.264583"
         d="m 129.58813,89.831793 -0.0424,0.05554 0.004,0.09355 0.0804,-0.04823 z"
         id="path60" /><path
         style="display:inline;opacity:1;fill:#4e58c6;fill-opacity:1;stroke-width:0.264583"
         d="m 129.63637,89.78502 -0.0175,0.0263 0.0453,0.07016 0.0263,-0.02193 z"
         id="path61" /><path
         style="display:inline;opacity:1;fill:#4e58c6;fill-opacity:1;stroke-width:0.264583"
         d="m 129.81176,89.657858 -0.1257,0.07016 0.0468,0.04823 z"
         id="path62" /><path
         style="display:inline;opacity:1;fill:#4e58c6;fill-opacity:1;stroke-width:0.264583"
         d="m 129.43466,89.863947 -0.38002,0.198784 0.0979,0.16224 0.28648,-0.336174 z"
         id="path63" /><path
         style="display:inline;opacity:1;fill:#4e58c6;fill-opacity:1;stroke-width:0.264583"
         d="m 128.96548,90.103655 -0.29525,0.150548 0.0658,0.118393 0.29964,-0.09208 -0.007,-0.03946 0.0336,-0.02045 z"
         id="path64" /><path
         style="display:inline;opacity:1;fill:#4e58c6;fill-opacity:1;stroke-width:0.264583"
         d="m 128.62346,90.289284 -0.31571,0.187086 0.36248,-0.095 z"
         id="path65" /><path
         style="display:inline;opacity:1;fill:#4e58c6;fill-opacity:1;stroke-width:0.264583"
         d="m 132.69784,87.525406 -0.0827,0.05891 0.0238,0.03928 0.0176,-0.02687 0.0579,0.05064 0.0568,-0.03617 z"
         id="path66" /><path
         style="display:inline;opacity:1;fill:#4e58c6;fill-opacity:1;stroke-width:0.264583"
         d="m 133.10815,87.123364 -0.24701,0.240811 0.0537,0.06511 0.23048,-0.260451 z"
         id="path67" /><path
         style="display:inline;opacity:1;fill:#4e58c6;fill-opacity:1;stroke-width:0.264583"
         d="m 133.27248,86.948697 -0.11885,0.11679 0.0331,0.05478 0.14883,-0.157096 -0.009,-0.0217 -0.0372,0.02687 z"
         id="path68" /><path
         style="display:inline;opacity:1;fill:#4e58c6;fill-opacity:1;stroke-width:0.264583"
         d="m 133.99078,86.15288 -0.52916,0.591177 0.0496,0.0041 0.48369,-0.560173 z"
         id="path69" /></g><text
       xml:space="preserve"
       style="font-style:normal;font-variant:normal;font-weight:normal;font-stretch:normal;font-size:3.52778px;font-family:Consolas;-inkscape-font-specification:Consolas;text-align:center;writing-mode:lr-tb;direction:ltr;text-anchor:middle;white-space:pre;inline-size:19.0377;display:inline;opacity:1;fill:#ffffff;fill-opacity:1;stroke:#000000;stroke-width:0.1;stroke-linejoin:miter;stroke-dasharray:1.2, 1.2;stroke-dashoffset:0;stroke-opacity:1"
       x="125.1857"
       y="87.697815"
       id="text84"
       transform="translate(-77.495853,1.122532)"><tspan
         x="125.1857"
         y="87.697815"
         id="tspan1">BASE<tspan
   y="87.697815"
   id="tspan2"> </tspan></tspan><tspan
         x="125.1857"
         y="92.107539"
         id="tspan3">'ORION'</tspan></text></g></svg>
