<?xml version="1.0" standalone="no"?>
<!DOCTYPE svg PUBLIC "-//W3C//DTD SVG 20010904//EN"
 "http://www.w3.org/TR/2001/REC-SVG-20010904/DTD/svg10.dtd">
<svg version="1.0" xmlns="http://www.w3.org/2000/svg"
 width="208.000000pt" height="208.000000pt" viewBox="0 0 208.000000 208.000000"
 preserveAspectRatio="xMidYMid meet">

<g transform="translate(0.000000,208.000000) scale(0.100000,-0.100000)"
fill="#000000" stroke="none">
<path d="M982 2043 l3 -38 55 0 55 0 3 38 3 37 -61 0 -61 0 3 -37z"/>
<path d="M1116 2038 c-3 -17 -5 -32 -4 -33 13 -8 215 -41 221 -35 4 4 9 20 10
35 2 28 -1 30 -68 46 -38 10 -89 18 -111 18 -39 1 -42 -1 -48 -31z"/>
<path d="M750 2028 c1 -7 7 -26 15 -43 10 -23 14 -26 14 -10 1 29 -10 65 -20
65 -5 0 -9 -6 -9 -12z"/>
<path d="M952 1973 c-16 -3 -22 -10 -18 -20 3 -8 6 -23 6 -34 0 -17 8 -19 99
-19 l99 0 5 33 c2 17 3 34 0 37 -6 7 -162 9 -191 3z"/>
<path d="M1176 1947 c-13 -47 -8 -53 52 -67 82 -18 178 -55 246 -96 61 -36 74
-35 97 7 8 16 -2 25 -66 62 -70 41 -217 97 -291 110 -27 5 -33 3 -38 -16z"/>
<path d="M461 1899 c-50 -33 -91 -65 -91 -71 0 -7 10 -22 21 -35 l22 -22 36
28 c20 16 60 43 89 61 28 17 52 36 52 40 0 16 -23 60 -31 60 -4 0 -48 -27 -98
-61z"/>
<path d="M1533 1939 c-20 -26 -34 -59 -25 -59 13 0 44 49 40 62 -2 6 -8 5 -15
-3z"/>
<path d="M961 1846 c-8 -18 -19 -24 -58 -30 -26 -3 -60 -9 -75 -12 -22 -5 -28
-3 -28 10 0 22 -9 20 -85 -11 -55 -22 -64 -30 -60 -47 4 -17 -8 -29 -57 -63
-52 -35 -64 -39 -80 -30 -17 11 -26 5 -69 -41 -40 -43 -47 -56 -38 -70 15 -23
-64 -144 -88 -135 -18 7 -26 -5 -53 -76 -18 -47 -19 -55 -6 -65 13 -9 14 -21
3 -80 -9 -56 -15 -70 -34 -77 -21 -8 -23 -15 -23 -79 0 -64 2 -71 23 -79 19
-7 25 -21 34 -77 11 -61 11 -70 -4 -81 -15 -11 -14 -18 12 -79 22 -52 32 -65
46 -61 27 7 105 -110 90 -135 -9 -14 -2 -27 38 -70 43 -46 52 -52 69 -41 16 9
28 5 80 -30 46 -31 61 -47 58 -60 -4 -14 9 -25 57 -48 71 -33 87 -36 87 -13 0
13 7 15 38 9 20 -5 55 -11 77 -14 32 -5 41 -11 43 -29 3 -20 8 -22 73 -22 64
0 70 2 78 24 8 18 19 24 58 30 26 3 60 9 76 12 21 5 27 3 27 -10 0 -22 9 -20
85 11 55 22 64 30 60 47 -4 17 8 29 57 63 52 35 64 39 80 30 17 -11 26 -5 69
41 40 43 47 56 38 70 -15 23 64 144 88 135 18 -7 26 5 53 76 18 47 19 55 6 65
-13 9 -14 21 -3 80 9 56 15 70 34 77 21 8 23 15 23 79 0 64 -2 71 -23 79 -19
7 -25 21 -34 77 -11 61 -11 70 4 81 15 11 14 18 -12 79 -22 52 -32 65 -46 61
-27 -7 -105 110 -90 135 9 14 2 27 -38 70 -43 46 -52 52 -69 41 -16 -9 -28 -5
-80 30 -46 31 -61 47 -58 60 4 14 -9 25 -57 48 -71 33 -87 36 -87 13 0 -13 -7
-15 -37 -9 -21 5 -56 11 -78 14 -32 5 -41 11 -43 29 -3 20 -8 22 -73 22 -64 0
-70 -2 -78 -24z m-477 -705 c3 -5 11 -44 17 -87 18 -120 28 -122 29 -6 0 95 1
102 20 102 19 0 20 -7 20 -115 l0 -115 -40 0 c-48 0 -53 8 -71 122 -11 73 -26
97 -50 82 -5 -3 -9 2 -9 10 0 12 10 16 39 16 22 0 42 -4 45 -9z m676 -106 l0
-115 -25 0 -25 0 0 115 0 115 25 0 25 0 0 -115z m104 83 c15 -42 -3 -82 -38
-86 -15 -2 -35 0 -44 3 -15 6 -14 8 6 16 30 12 32 69 2 69 -11 0 -20 7 -20 16
0 12 9 14 42 12 36 -3 44 -7 52 -30z m86 12 c0 -15 -7 -20 -25 -20 -18 0 -25
5 -25 20 0 15 7 20 25 20 18 0 25 -5 25 -20z m-922 -29 c20 -12 12 -176 -8
-176 -12 0 -16 18 -18 93 -3 90 0 100 26 83z m227 -179 c-3 -4 -13 -2 -22 4
-10 6 -16 25 -16 54 0 77 2 88 21 92 15 3 17 -6 20 -71 2 -40 0 -76 -3 -79z
m83 145 c7 -8 8 -25 3 -43 -6 -24 -13 -29 -39 -31 -33 -1 -43 11 -17 21 8 3
15 12 15 21 0 9 -7 18 -15 21 -25 10 -17 24 14 24 16 0 33 -6 39 -13z m88 -12
c1 -11 2 -41 3 -67 1 -36 5 -48 16 -48 8 0 15 -5 15 -11 0 -6 -16 -9 -37 -7
l-38 3 -3 78 c-3 77 -2 78 20 75 15 -2 24 -10 24 -23z m84 -40 c0 -49 4 -67
15 -71 27 -11 16 -25 -17 -22 l-33 3 -3 78 c-3 72 -1 77 18 77 18 0 20 -6 20
-65z m88 -12 c-3 -72 -5 -78 -26 -81 -22 -3 -22 -1 -21 77 1 79 2 81 26 81 23
0 24 -1 21 -77z m336 71 c13 -5 16 -22 16 -81 0 -71 -1 -74 -22 -71 -21 3 -23
8 -25 81 -2 77 1 83 31 71z m96 -29 c0 -24 5 -35 15 -35 8 0 15 -4 15 -10 0
-14 -54 -12 -68 2 -25 25 -8 78 25 78 8 0 13 -13 13 -35z m64 29 c20 -8 21
-44 1 -44 -14 0 -55 34 -55 45 0 7 35 6 54 -1z m97 -11 c2 -40 -2 -137 -6
-141 -2 -3 -11 1 -20 8 -19 16 -22 136 -2 143 22 9 27 7 28 -10z m39 7 c0 -5
-4 -10 -10 -10 -5 0 -10 5 -10 10 0 6 5 10 10 10 6 0 10 -4 10 -10z m48 -25
c-3 -3 -9 2 -12 12 -6 14 -5 15 5 6 7 -7 10 -15 7 -18z m-18 -14 c0 -6 -4 -13
-10 -16 -5 -3 -10 1 -10 9 0 9 5 16 10 16 6 0 10 -4 10 -9z m-402 -64 c3 -48
3 -48 -25 -45 -26 3 -28 7 -31 51 -3 48 -3 48 25 45 26 -3 28 -7 31 -51z m253
21 c7 -13 11 -25 10 -28 -2 -3 -7 -13 -12 -22 -19 -35 -39 -21 -39 27 0 51 20
62 41 23z m119 12 c0 -5 -4 -10 -10 -10 -5 0 -10 5 -10 10 0 6 5 10 10 10 6 0
10 -4 10 -10z m-890 -51 c0 -15 -5 -19 -16 -15 -8 3 -12 2 -9 -4 4 -6 -6 -10
-22 -10 -25 1 -26 2 -10 14 9 7 17 18 17 25 0 6 9 11 20 11 14 0 20 -7 20 -21z
m690 10 c0 -7 8 -18 18 -25 16 -12 15 -13 -5 -14 -34 0 -53 11 -53 31 0 12 7
19 20 19 11 0 20 -5 20 -11z m244 2 c12 -19 -7 -41 -35 -41 -34 0 -35 3 -11
29 19 21 38 26 46 12z"/>
<path d="M490 961 c0 -6 4 -13 10 -16 6 -3 7 1 4 9 -7 18 -14 21 -14 7z"/>
<path d="M553 1843 c-18 -6 -16 -24 7 -53 15 -19 22 -22 31 -13 9 9 7 18 -7
41 -11 16 -25 27 -31 25z"/>
<path d="M305 1769 l-40 -40 29 -24 30 -24 37 37 37 37 -20 27 c-11 16 -23 28
-27 28 -4 0 -25 -18 -46 -41z"/>
<path d="M1702 1782 l-20 -27 37 -37 37 -37 30 24 29 24 -40 40 c-21 23 -42
41 -46 41 -4 0 -16 -12 -27 -28z"/>
<path d="M1793 1688 l-22 -21 28 -36 c16 -20 43 -60 61 -88 17 -29 36 -53 40
-53 16 0 60 23 60 31 0 16 -122 189 -133 189 -7 0 -22 -10 -34 -22z"/>
<path d="M227 1505 c-41 -70 -97 -217 -110 -291 -5 -27 -3 -33 16 -38 47 -13
53 -8 67 52 18 82 55 178 96 246 36 61 35 74 -7 97 -16 8 -25 -2 -62 -66z"/>
<path d="M135 1540 c9 -15 65 -42 65 -31 0 10 -45 41 -60 41 -6 0 -8 -5 -5
-10z"/>
<path d="M1790 1520 c-19 -14 -22 -22 -13 -31 15 -15 74 18 66 38 -7 18 -23
16 -53 -7z"/>
<path d="M45 1339 c-13 -37 -35 -148 -35 -180 0 -33 3 -37 32 -43 17 -3 32 -5
33 -4 7 12 41 215 36 220 -14 15 -61 20 -66 7z"/>
<path d="M1985 1315 c-23 -10 -26 -14 -10 -14 29 -1 65 10 65 20 0 13 -20 10
-55 -6z"/>
<path d="M104 1115 c-6 -35 -1 -172 7 -179 2 -2 19 -1 37 1 l32 5 0 99 c0 91
-2 99 -19 99 -11 0 -26 3 -35 6 -11 4 -17 -4 -22 -31z"/>
<path d="M1928 1143 l-28 -4 0 -99 0 -98 33 -5 c17 -2 34 -3 36 -1 17 16 10
216 -7 213 -4 -1 -19 -4 -34 -6z"/>
<path d="M0 1040 l0 -61 38 3 37 3 0 55 0 55 -37 3 -38 3 0 -61z"/>
<path d="M2004 1086 c-3 -7 -4 -33 -2 -57 3 -43 4 -44 41 -47 l37 -3 0 60 0
61 -35 0 c-21 0 -38 -6 -41 -14z"/>
<path d="M1984 863 c-12 -59 -18 -112 -14 -116 4 -4 20 -9 35 -10 28 -2 30 1
46 68 21 86 24 155 7 155 -7 0 -22 3 -33 6 -19 5 -22 -4 -41 -103z"/>
<path d="M1880 853 c-18 -83 -55 -179 -96 -247 -36 -61 -35 -74 7 -97 16 -8
25 2 62 66 41 70 97 217 110 291 5 27 3 33 -16 38 -47 13 -53 8 -67 -51z"/>
<path d="M58 773 c-20 -5 -24 -23 -5 -23 6 1 26 7 42 15 29 13 29 13 5 13 -14
0 -33 -2 -42 -5z"/>
<path d="M258 582 c-20 -13 -24 -22 -18 -32 8 -13 13 -13 37 2 28 17 37 38 18
45 -5 1 -22 -5 -37 -15z"/>
<path d="M143 578 c-13 -6 -23 -15 -23 -19 0 -15 122 -189 132 -189 7 0 22 10
35 21 l22 22 -28 36 c-16 20 -43 60 -61 89 -33 54 -40 58 -77 40z"/>
<path d="M1880 571 c0 -10 45 -41 60 -41 6 0 8 5 5 10 -9 15 -65 42 -65 31z"/>
<path d="M294 375 l-29 -24 40 -40 c21 -23 42 -41 46 -41 4 0 16 12 27 28 l20
27 -37 37 -37 37 -30 -24z"/>
<path d="M1718 361 l-37 -37 24 -30 24 -29 40 40 c23 21 41 42 41 46 0 4 -12
16 -28 27 l-27 20 -37 -37z"/>
<path d="M520 303 c-20 -26 -21 -28 -3 -41 71 -53 250 -127 349 -145 27 -5 33
-3 38 16 13 47 8 53 -51 67 -82 18 -179 55 -246 95 -32 19 -60 35 -62 35 -2 0
-13 -12 -25 -27z"/>
<path d="M1485 300 c-4 -6 2 -24 12 -40 14 -21 22 -27 33 -20 13 8 13 13 -2
37 -19 31 -33 39 -43 23z"/>
<path d="M1635 284 c-16 -14 -56 -41 -87 -60 -32 -20 -58 -39 -58 -44 0 -16
23 -60 31 -60 17 0 189 122 189 134 0 7 -10 22 -22 33 l-23 21 -30 -24z"/>
<path d="M546 175 c-18 -27 -21 -49 -6 -40 15 9 42 65 31 65 -5 0 -16 -11 -25
-25z"/>
<path d="M937 148 c-2 -18 -3 -35 0 -38 3 -3 49 -5 103 -5 54 0 100 2 103 5 3
3 2 20 0 38 l-5 32 -98 0 -98 0 -5 -32z"/>
<path d="M740 94 c-6 -15 -9 -33 -6 -39 5 -13 140 -45 191 -45 21 0 35 5 35
13 0 6 3 21 6 33 5 19 -2 22 -93 38 -54 10 -104 20 -110 23 -7 2 -17 -7 -23
-23z"/>
<path d="M1301 105 c-1 -29 10 -65 20 -65 13 0 10 20 -6 55 -10 23 -14 26 -14
10z"/>
<path d="M987 74 c-4 -4 -7 -22 -7 -41 l0 -33 61 0 60 0 -3 38 -3 37 -50 3
c-28 2 -54 0 -58 -4z"/>
</g>
</svg>
